<svg xmlns="http://www.w3.org/2000/svg" width="256" height="46" viewBox="0 0 256 46">
  <g id="CourseBotLogo" transform="translate(1187.997 -873.495)">
    <text id="AI-powered_content_creation_made_easy" data-name="AI-powered content creation made easy" transform="translate(-1187.997 916.495)" fill="#2953b3" font-size="14" font-family="AvenirNextLTPro-Regular, Avenir Next LT Pro"><tspan x="0" y="0">AI-powered content creation made easy</tspan></text>
    <g id="Flipick" transform="translate(-1187.997 873.495)">
      <g id="Group_3" data-name="Group 3" transform="translate(0 0)">
        <g id="Group_2" data-name="Group 2">
          <g id="Group_1" data-name="Group 1" transform="translate(19.929)">
            <path id="Path_2" data-name="Path 2" d="M56.1,10.146a3.814,3.814,0,0,0,3.9-3.6,3.44,3.44,0,0,0-3.6-2.851,3.694,3.694,0,0,0-3.9,3.451A3.563,3.563,0,0,0,56.1,10.146Z" transform="translate(-39.431 -3.695)" fill="#1d2858"/>
            <path id="Path_3" data-name="Path 3" d="M81.6,12.15h-13.8L65.705,22.8a4.956,4.956,0,0,1-2.55,1.2c-1.5,0-1.8-1.35-1.8-2.4.15-1.8,1.8-9.449,1.8-9.449h-6.6s-1.95,8.1-1.8,10.65A5.111,5.111,0,0,1,51.9,24.45c-1.2,0-1.5-.9-1.65-1.95a15.748,15.748,0,0,1,.449-2.851L53.556,4.2h-6.45l-2.7,13.5a19.478,19.478,0,0,0-.6,4.8,5.418,5.418,0,0,0,5.7,5.25,10.109,10.109,0,0,0,6.15-2.1,4.621,4.621,0,0,0,4.2,2.25,9.4,9.4,0,0,0,5.55-2.1l-1.5,7.649h6.45l1.35-6.6c1.5.9,2.4.9,4.348.9a12.2,12.2,0,0,0,6.6-1.8C85.505,24,87.754,21,87.6,17.249A5.628,5.628,0,0,0,81.6,12.15ZM80.255,18c-.3,2.7-2.851,6.6-5.55,6.6-1.8,0-2.25-1.05-2.1-2.4a5.781,5.781,0,0,1,.3-1.5l1.05-6.151h3.6C79.8,14.548,80.4,16.2,80.255,18Z" transform="translate(-43.787 -3.448)" fill="#1d2858"/>
            <path id="Path_4" data-name="Path 4" d="M78.9,10.146c1.95,0,4.05-1.5,3.9-3.6a3.44,3.44,0,0,0-3.6-2.851,3.694,3.694,0,0,0-3.9,3.451A3.563,3.563,0,0,0,78.9,10.146Z" transform="translate(-28.033 -3.695)" fill="#1d2858"/>
            <path id="Path_5" data-name="Path 5" d="M123.158,22a3.883,3.883,0,0,1-1.65,1.05c-1.2.3-1.8-.9-2.25-1.8-.75-1.35-1.8-3.45-4.65-2.851l6.45-4.8-2.1-2.249L108.609,19l2.549-14.7h-6.45l-3.6,18.6a9.314,9.314,0,0,1-5.7,1.95,3.757,3.757,0,0,1-4.05-3.6c-.15-3,1.2-6.75,4.95-6.75h4.2l.449-2.4a36.872,36.872,0,0,0-4.2-.3,20.1,20.1,0,0,0-3,.15c-4.95.6-9.75,3.45-9.6,9a4.152,4.152,0,0,0,.449,1.95,4.245,4.245,0,0,1-2.4,1.05c-1.5,0-1.8-1.35-1.8-2.4.15-1.8,1.8-9.449,1.8-9.449h-6.6s-2.1,8.7-1.8,10.949c.3,2.7,1.95,4.65,4.95,4.65,2.7,0,4.95-1.5,6.9-3.15a10.514,10.514,0,0,0,7.8,3.15,15.018,15.018,0,0,0,7.2-1.8l-.3,1.35h5.25c.75-1.5,2.851-5.7,4.8-5.7,1.65,0,3,2.55,4.5,4.5a4.374,4.374,0,0,0,4.2,1.65c2.25-.449,4.2-2.4,5.55-4.05Z" transform="translate(-28.793 -3.398)" fill="#1d2858"/>
          </g>
          <path id="Path_6" data-name="Path 6" d="M41.749,9.25v-.3A1.832,1.832,0,0,1,43.7,7.3h6.6l.6-3H42.349c-3.6,0-7.5,0-8.25,4.65,0,.3-.449,2.4-1.05,5.1h0L30.5,27.1h7.8l1.95-10.049h8.1l.6-3.3h-8.1l.9-4.5Z" transform="translate(-30.5 -3.398)" fill="#1d2858"/>
        </g>
      </g>
    </g>
    <path id="Path_1710" data-name="Path 1710" d="M14.209,0H97.675L96.548,8.65A16.019,16.019,0,0,1,80.529,24.669H-2.663l.853-8.65A16.019,16.019,0,0,1,14.209,0Z" transform="translate(-1063.482 875.899)" fill="#560ae8"/>
    <path id="Path_1732" data-name="Path 1732" d="M11.565-26.175a7.034,7.034,0,0,1-.929.939,3.967,3.967,0,0,1-.9.559,3.554,3.554,0,0,1-.964.27,8.6,8.6,0,0,1-1.141.068,4.47,4.47,0,0,1-2.1-.473,4.445,4.445,0,0,1-1.511-1.277,5.663,5.663,0,0,1-.914-1.878,8.253,8.253,0,0,1-.306-2.275,8.793,8.793,0,0,1,.126-1.489,6.888,6.888,0,0,1,.384-1.385,5.5,5.5,0,0,1,.658-1.2,4.315,4.315,0,0,1,.95-.953A4.315,4.315,0,0,1,6.177-35.9a5.15,5.15,0,0,1,1.565-.224,7.113,7.113,0,0,1,.982.064,4.6,4.6,0,0,1,.878.209,3.752,3.752,0,0,1,.795.391,4.651,4.651,0,0,1,.741.6l-1.087,1.346A4.567,4.567,0,0,0,9.523-34a2.866,2.866,0,0,0-.545-.331,2.488,2.488,0,0,0-.59-.187,3.7,3.7,0,0,0-.676-.058,2.331,2.331,0,0,0-1.266.334,2.751,2.751,0,0,0-.878.889,4.15,4.15,0,0,0-.511,1.266,6.5,6.5,0,0,0-.166,1.474,8.286,8.286,0,0,0,.2,1.86,5.572,5.572,0,0,0,.561,1.5,3.066,3.066,0,0,0,.865,1,1.874,1.874,0,0,0,1.121.363,3.951,3.951,0,0,0,.939-.1,2.492,2.492,0,0,0,.691-.277A2.364,2.364,0,0,0,9.8-26.7a6.257,6.257,0,0,0,.475-.6Zm5.4,1.82a4.46,4.46,0,0,1-1.68-.3,3.318,3.318,0,0,1-1.227-.838,3.6,3.6,0,0,1-.752-1.31,5.382,5.382,0,0,1-.256-1.709,4.748,4.748,0,0,1,.237-1.511,3.534,3.534,0,0,1,.72-1.252,3.424,3.424,0,0,1,1.213-.856,4.289,4.289,0,0,1,1.716-.317,4.159,4.159,0,0,1,1.7.317,3.19,3.19,0,0,1,1.173.867,3.559,3.559,0,0,1,.681,1.3,5.613,5.613,0,0,1,.219,1.594,4.686,4.686,0,0,1-.256,1.558,3.78,3.78,0,0,1-.74,1.277,3.5,3.5,0,0,1-1.179.863,3.731,3.731,0,0,1-1.566.317Zm-.064-1.3a1.329,1.329,0,0,0,.821-.259,2,2,0,0,0,.568-.684,3.573,3.573,0,0,0,.331-.957,5.456,5.456,0,0,0,.108-1.087,4.646,4.646,0,0,0-.1-.968,2.335,2.335,0,0,0-.32-.8,1.666,1.666,0,0,0-.577-.545,1.7,1.7,0,0,0-.856-.2,1.533,1.533,0,0,0-.8.209,1.736,1.736,0,0,0-.579.572,2.819,2.819,0,0,0-.349.865,4.683,4.683,0,0,0-.119,1.083,4.614,4.614,0,0,0,.1.964,3.146,3.146,0,0,0,.331.892,2.009,2.009,0,0,0,.583.658,1.424,1.424,0,0,0,.851.256Zm7.613-6.671V-27a1.422,1.422,0,0,0,.09.532.993.993,0,0,0,.241.363.926.926,0,0,0,.356.205,1.462,1.462,0,0,0,.443.064,4.824,4.824,0,0,0,1.1-.133,3.492,3.492,0,0,0,1.029-.414v-5.943h1.871V-25.9a4.706,4.706,0,0,0,.043.536q.043.349.128.817h-1.77q-.014-.043-.047-.162t-.064-.256l-.061-.259q-.029-.122-.036-.18a3.729,3.729,0,0,1-.55.4,4.414,4.414,0,0,1-.641.317,4.161,4.161,0,0,1-.673.205,3.113,3.113,0,0,1-.648.073,3.406,3.406,0,0,1-1.292-.212,2.1,2.1,0,0,1-.824-.579,2.168,2.168,0,0,1-.439-.865,4.207,4.207,0,0,1-.128-1.065v-5.187Zm9.168,0a13.768,13.768,0,0,1,.216,1.554,2.445,2.445,0,0,1,.4-.619,3.477,3.477,0,0,1,.577-.536,3.12,3.12,0,0,1,.666-.378,1.746,1.746,0,0,1,.666-.144,2.542,2.542,0,0,1,.59.05,2.135,2.135,0,0,1,.309.1L36.7-30.6a1.9,1.9,0,0,0-.428-.147,2,2,0,0,0-.392-.04,2.032,2.032,0,0,0-1.148.317,2.485,2.485,0,0,0-.781.835l.014,5.088H32.081v-6.462q0-.122,0-.309T32.07-31.7q0-.194-.014-.363t-.025-.256Zm5.13,5.505a3.068,3.068,0,0,0,2.275,1.18,2.173,2.173,0,0,0,.5-.054,1.142,1.142,0,0,0,.4-.169.841.841,0,0,0,.263-.3.9.9,0,0,0,.1-.432.661.661,0,0,0-.079-.324.874.874,0,0,0-.209-.252,1.62,1.62,0,0,0-.288-.192,2.607,2.607,0,0,0-.317-.14q-.3-.122-.587-.219t-.587-.219q-.166-.058-.4-.147a4.5,4.5,0,0,1-.486-.224,3.973,3.973,0,0,1-.5-.313,2.281,2.281,0,0,1-.442-.432,2.176,2.176,0,0,1-.32-.572,2.058,2.058,0,0,1-.122-.737,1.63,1.63,0,0,1,.252-.907,2.147,2.147,0,0,1,.669-.651,3.255,3.255,0,0,1,.946-.4,4.449,4.449,0,0,1,1.089-.133,5.9,5.9,0,0,1,1.623.209,3.733,3.733,0,0,1,1.335.7l-.849,1.31q-.224-.224-.435-.4a2.635,2.635,0,0,0-.449-.3,2.114,2.114,0,0,0-.518-.192,2.862,2.862,0,0,0-.641-.064,1.647,1.647,0,0,0-.518.072,1.031,1.031,0,0,0-.356.194.745.745,0,0,0-.205.281.865.865,0,0,0-.064.331.589.589,0,0,0,.094.334.934.934,0,0,0,.241.245,1.641,1.641,0,0,0,.334.18q.187.076.381.14.3.108.609.212t.609.212l.367.137a3.586,3.586,0,0,1,.446.2,3.164,3.164,0,0,1,.457.3,2.078,2.078,0,0,1,.407.425,2.162,2.162,0,0,1,.292.577,2.354,2.354,0,0,1,.111.759,1.723,1.723,0,0,1-.266.953,2.27,2.27,0,0,1-.7.691,3.44,3.44,0,0,1-.99.423,4.5,4.5,0,0,1-1.137.144,7.9,7.9,0,0,1-.979-.058,4.6,4.6,0,0,1-.874-.194A3.632,3.632,0,0,1,38.5-25a3.551,3.551,0,0,1-.7-.587Zm13.917.979a5.568,5.568,0,0,1-.86.763,3.794,3.794,0,0,1-.824.442,3.539,3.539,0,0,1-.835.205,7.513,7.513,0,0,1-.885.05,3.853,3.853,0,0,1-1.7-.345,3.249,3.249,0,0,1-1.159-.921,3.818,3.818,0,0,1-.662-1.324,5.669,5.669,0,0,1-.212-1.554,5,5,0,0,1,.219-1.486,3.582,3.582,0,0,1,.669-1.249,3.285,3.285,0,0,1,1.13-.865,3.689,3.689,0,0,1,1.6-.324,4.238,4.238,0,0,1,1.439.224,2.734,2.734,0,0,1,1.033.641,2.672,2.672,0,0,1,.622,1.011,3.985,3.985,0,0,1,.209,1.328q0,.281-.018.579a5.423,5.423,0,0,1-.076.623H47.567a2.567,2.567,0,0,0,.123.742,2.925,2.925,0,0,0,.356.759,2.134,2.134,0,0,0,.579.594,1.364,1.364,0,0,0,.792.237,3.544,3.544,0,0,0,.68-.058,2,2,0,0,0,.54-.187,2.155,2.155,0,0,0,.475-.342,5.5,5.5,0,0,0,.484-.53Zm-3.626-5.2a1.573,1.573,0,0,0-.748.158,1.274,1.274,0,0,0-.468.416,1.706,1.706,0,0,0-.245.59,3.209,3.209,0,0,0-.072.684h2.972a4.819,4.819,0,0,0-.043-.63,1.652,1.652,0,0,0-.194-.6,1.229,1.229,0,0,0-.435-.446A1.444,1.444,0,0,0,49.106-31.04Zm9.117-4.787a5.744,5.744,0,0,1,1.538.192,3.457,3.457,0,0,1,1.166.55,2.452,2.452,0,0,1,.737.885,2.683,2.683,0,0,1,.259,1.2,2.119,2.119,0,0,1-.169.828,2.765,2.765,0,0,1-.457.737,3.055,3.055,0,0,1-.676.583,2.891,2.891,0,0,1-.828.363,3.891,3.891,0,0,1,.9.288,3.1,3.1,0,0,1,.849.568,2.915,2.915,0,0,1,.633.874,2.728,2.728,0,0,1,.248,1.2,2.633,2.633,0,0,1-.253,1.118,2.809,2.809,0,0,1-.748.964A3.774,3.774,0,0,1,60.2-24.8a5.2,5.2,0,0,1-1.691.253H54.619l.007-11.277ZM56.6-29.572V-26h1.518a3.131,3.131,0,0,0,1.025-.151,2.154,2.154,0,0,0,.72-.4,1.607,1.607,0,0,0,.421-.554,1.512,1.512,0,0,0,.137-.623,1.883,1.883,0,0,0-.137-.713,1.518,1.518,0,0,0-.425-.587,2.133,2.133,0,0,0-.737-.4,3.5,3.5,0,0,0-1.083-.147Zm.007-4.8L56.6-31.026h1.051a4.3,4.3,0,0,0,.968-.1,2.128,2.128,0,0,0,.741-.313,1.454,1.454,0,0,0,.471-.532,1.634,1.634,0,0,0,.166-.759,1.971,1.971,0,0,0-.122-.727,1.109,1.109,0,0,0-.414-.511,2.114,2.114,0,0,0-.766-.3,5.812,5.812,0,0,0-1.18-.1Zm17.724,3.951a7.731,7.731,0,0,1-.169,1.634,6.777,6.777,0,0,1-.489,1.464,5.84,5.84,0,0,1-.777,1.234,5.068,5.068,0,0,1-1.029.95,4.684,4.684,0,0,1-1.249.612,4.706,4.706,0,0,1-1.439.216A5.224,5.224,0,0,1,67-24.743a4.5,4.5,0,0,1-1.612-1.217,5.418,5.418,0,0,1-1-1.882,8.062,8.062,0,0,1-.345-2.429,7.358,7.358,0,0,1,.36-2.353,5.46,5.46,0,0,1,1.029-1.849,4.621,4.621,0,0,1,1.63-1.209,5.219,5.219,0,0,1,2.163-.432,5.3,5.3,0,0,1,2.062.392A4.557,4.557,0,0,1,72.9-34.6,5.174,5.174,0,0,1,73.951-32.8a7.048,7.048,0,0,1,.378,2.383Zm-2.087.18a6.847,6.847,0,0,0-.212-1.767,4.313,4.313,0,0,0-.609-1.364,2.858,2.858,0,0,0-.957-.881,2.541,2.541,0,0,0-1.259-.313,2.656,2.656,0,0,0-1.249.3,2.832,2.832,0,0,0-.971.845,4.186,4.186,0,0,0-.633,1.328,6.185,6.185,0,0,0-.227,1.734,7.959,7.959,0,0,0,.192,1.794,4.658,4.658,0,0,0,.568,1.428,2.823,2.823,0,0,0,.939.943,2.46,2.46,0,0,0,1.3.338,2.42,2.42,0,0,0,1.314-.363,3.239,3.239,0,0,0,.982-.971,4.732,4.732,0,0,0,.615-1.4,6.335,6.335,0,0,0,.214-1.647Zm12.175-4.131H80.949v9.823H78.97v-9.823H75.51v-1.455h8.909Z" transform="translate(-1059.83 918.55)" fill="#fff"/>
  </g>
</svg>
